<?xml version="1.0" encoding="UTF-8" standalone="no"?>
<!DOCTYPE svg PUBLIC "-//W3C//DTD SVG 1.1//EN" "http://www.w3.org/Graphics/SVG/1.1/DTD/svg11.dtd">
<svg width="100%" height="100%" viewBox="0 0 2481 3508" version="1.1" xmlns="http://www.w3.org/2000/svg" xmlns:xlink="http://www.w3.org/1999/xlink" xml:space="preserve" xmlns:serif="http://www.serif.com/" style="fill-rule:evenodd;clip-rule:evenodd;stroke-linecap:round;stroke-linejoin:round;stroke-miterlimit:1.5;">
    <g transform="matrix(1,0,0,1,-19.1431,498.081)">
        <g transform="matrix(300,0,0,300,544.254,1241.09)">
            <path d="M0.393,-0.728C0.467,-0.728 0.531,-0.713 0.584,-0.683C0.637,-0.653 0.678,-0.61 0.705,-0.554C0.732,-0.499 0.746,-0.434 0.746,-0.359C0.746,-0.304 0.739,-0.253 0.724,-0.208C0.709,-0.163 0.686,-0.124 0.656,-0.09C0.626,-0.057 0.59,-0.032 0.546,-0.014C0.502,0.003 0.452,0.012 0.396,0.012C0.34,0.012 0.29,0.003 0.246,-0.015C0.201,-0.033 0.164,-0.058 0.135,-0.091C0.105,-0.124 0.083,-0.164 0.068,-0.21C0.052,-0.256 0.045,-0.306 0.045,-0.36C0.045,-0.415 0.053,-0.465 0.069,-0.511C0.084,-0.557 0.107,-0.596 0.137,-0.628C0.167,-0.661 0.204,-0.685 0.247,-0.702C0.29,-0.719 0.338,-0.728 0.393,-0.728ZM0.599,-0.36C0.599,-0.412 0.591,-0.458 0.574,-0.496C0.557,-0.535 0.533,-0.564 0.501,-0.583C0.47,-0.603 0.434,-0.613 0.393,-0.613C0.364,-0.613 0.337,-0.607 0.313,-0.596C0.288,-0.586 0.267,-0.57 0.249,-0.549C0.232,-0.528 0.218,-0.501 0.207,-0.469C0.197,-0.437 0.192,-0.4 0.192,-0.36C0.192,-0.319 0.197,-0.282 0.207,-0.25C0.218,-0.217 0.232,-0.189 0.251,-0.168C0.269,-0.146 0.291,-0.13 0.315,-0.119C0.339,-0.108 0.366,-0.103 0.395,-0.103C0.432,-0.103 0.466,-0.112 0.497,-0.131C0.528,-0.149 0.553,-0.178 0.572,-0.217C0.59,-0.256 0.599,-0.303 0.599,-0.36Z" style="fill-rule:nonzero;"/>
        </g>
        <g transform="matrix(300,0,0,300,781.852,1241.09)">
            <path d="M0.192,-0.455L0.192,-0.439C0.217,-0.47 0.243,-0.493 0.27,-0.507C0.297,-0.522 0.328,-0.529 0.362,-0.529C0.403,-0.529 0.441,-0.518 0.475,-0.497C0.51,-0.476 0.537,-0.445 0.557,-0.404C0.577,-0.364 0.587,-0.315 0.587,-0.26C0.587,-0.219 0.581,-0.181 0.57,-0.147C0.558,-0.112 0.542,-0.084 0.522,-0.06C0.502,-0.037 0.478,-0.019 0.45,-0.007C0.423,0.006 0.393,0.012 0.362,0.012C0.324,0.012 0.292,0.005 0.266,-0.011C0.24,-0.026 0.215,-0.049 0.192,-0.078L0.192,0.122C0.192,0.181 0.171,0.21 0.128,0.21C0.103,0.21 0.086,0.202 0.078,0.187C0.07,0.172 0.066,0.15 0.066,0.121L0.066,-0.454C0.066,-0.479 0.071,-0.498 0.083,-0.511C0.094,-0.524 0.109,-0.53 0.128,-0.53C0.147,-0.53 0.162,-0.523 0.174,-0.51C0.186,-0.498 0.192,-0.479 0.192,-0.455ZM0.453,-0.261C0.453,-0.296 0.448,-0.327 0.437,-0.352C0.426,-0.377 0.411,-0.396 0.392,-0.41C0.373,-0.423 0.352,-0.43 0.329,-0.43C0.292,-0.43 0.261,-0.416 0.236,-0.387C0.211,-0.358 0.198,-0.315 0.198,-0.259C0.198,-0.206 0.211,-0.164 0.236,-0.135C0.261,-0.106 0.292,-0.091 0.329,-0.091C0.351,-0.091 0.372,-0.097 0.391,-0.11C0.41,-0.123 0.425,-0.142 0.436,-0.168C0.447,-0.194 0.453,-0.225 0.453,-0.261Z" style="fill-rule:nonzero;"/>
        </g>
        <g transform="matrix(300,0,0,300,969.352,1241.09)">
            <path d="M0.441,-0.226L0.18,-0.226C0.181,-0.196 0.187,-0.169 0.198,-0.146C0.21,-0.123 0.226,-0.105 0.246,-0.094C0.266,-0.082 0.287,-0.076 0.311,-0.076C0.327,-0.076 0.342,-0.078 0.355,-0.082C0.368,-0.086 0.381,-0.091 0.393,-0.099C0.405,-0.107 0.417,-0.116 0.427,-0.125C0.438,-0.134 0.451,-0.146 0.468,-0.162C0.475,-0.168 0.484,-0.171 0.497,-0.171C0.511,-0.171 0.522,-0.167 0.53,-0.16C0.539,-0.152 0.543,-0.142 0.543,-0.128C0.543,-0.116 0.538,-0.102 0.529,-0.086C0.519,-0.07 0.505,-0.054 0.486,-0.039C0.467,-0.024 0.443,-0.012 0.414,-0.002C0.385,0.007 0.352,0.012 0.315,0.012C0.229,0.012 0.163,-0.012 0.115,-0.061C0.068,-0.11 0.044,-0.176 0.044,-0.26C0.044,-0.299 0.05,-0.336 0.062,-0.369C0.073,-0.403 0.09,-0.432 0.113,-0.456C0.135,-0.48 0.163,-0.499 0.196,-0.511C0.229,-0.524 0.265,-0.531 0.305,-0.531C0.357,-0.531 0.402,-0.52 0.439,-0.498C0.476,-0.476 0.504,-0.447 0.523,-0.413C0.542,-0.378 0.551,-0.342 0.551,-0.306C0.551,-0.273 0.541,-0.251 0.522,-0.241C0.503,-0.231 0.476,-0.226 0.441,-0.226ZM0.18,-0.302L0.422,-0.302C0.419,-0.347 0.406,-0.381 0.385,-0.404C0.364,-0.427 0.336,-0.438 0.301,-0.438C0.268,-0.438 0.24,-0.427 0.219,-0.404C0.198,-0.381 0.185,-0.347 0.18,-0.302Z" style="fill-rule:nonzero;"/>
        </g>
        <g transform="matrix(300,0,0,300,1147.62,1241.09)">
            <path d="M0.19,-0.456L0.19,-0.44C0.213,-0.471 0.239,-0.494 0.267,-0.508C0.295,-0.523 0.327,-0.53 0.363,-0.53C0.398,-0.53 0.429,-0.522 0.457,-0.507C0.485,-0.492 0.505,-0.47 0.519,-0.442C0.528,-0.426 0.534,-0.408 0.536,-0.389C0.539,-0.37 0.54,-0.346 0.54,-0.317L0.54,-0.069C0.54,-0.042 0.534,-0.022 0.522,-0.008C0.51,0.005 0.494,0.012 0.474,0.012C0.454,0.012 0.438,0.005 0.426,-0.009C0.413,-0.023 0.407,-0.043 0.407,-0.069L0.407,-0.291C0.407,-0.335 0.401,-0.369 0.389,-0.392C0.377,-0.415 0.352,-0.427 0.316,-0.427C0.292,-0.427 0.271,-0.42 0.251,-0.406C0.231,-0.391 0.217,-0.372 0.208,-0.347C0.201,-0.327 0.198,-0.29 0.198,-0.236L0.198,-0.069C0.198,-0.042 0.192,-0.022 0.179,-0.008C0.167,0.005 0.151,0.012 0.131,0.012C0.112,0.012 0.096,0.005 0.083,-0.009C0.071,-0.023 0.065,-0.043 0.065,-0.069L0.065,-0.454C0.065,-0.479 0.07,-0.498 0.082,-0.511C0.093,-0.524 0.108,-0.53 0.127,-0.53C0.139,-0.53 0.149,-0.527 0.159,-0.521C0.168,-0.516 0.176,-0.508 0.181,-0.497C0.187,-0.486 0.19,-0.472 0.19,-0.456Z" style="fill-rule:nonzero;"/>
        </g>
        <g transform="matrix(300,0,0,300,1403.82,1241.09)">
            <path d="M0.688,-0.226C0.688,-0.203 0.682,-0.179 0.671,-0.152C0.66,-0.126 0.642,-0.1 0.618,-0.074C0.594,-0.048 0.563,-0.028 0.526,-0.012C0.488,0.004 0.445,0.012 0.395,0.012C0.357,0.012 0.323,0.009 0.292,0.001C0.261,-0.006 0.233,-0.017 0.208,-0.032C0.183,-0.047 0.159,-0.067 0.138,-0.092C0.119,-0.114 0.103,-0.139 0.09,-0.167C0.076,-0.195 0.066,-0.225 0.06,-0.256C0.053,-0.288 0.05,-0.321 0.05,-0.357C0.05,-0.415 0.058,-0.466 0.075,-0.512C0.092,-0.557 0.116,-0.596 0.147,-0.629C0.178,-0.661 0.215,-0.686 0.257,-0.703C0.299,-0.72 0.344,-0.728 0.391,-0.728C0.449,-0.728 0.501,-0.716 0.546,-0.693C0.591,-0.67 0.626,-0.642 0.65,-0.608C0.674,-0.574 0.686,-0.542 0.686,-0.511C0.686,-0.495 0.68,-0.48 0.668,-0.467C0.657,-0.455 0.643,-0.448 0.626,-0.448C0.607,-0.448 0.594,-0.453 0.584,-0.461C0.575,-0.47 0.565,-0.485 0.553,-0.507C0.534,-0.542 0.512,-0.569 0.487,-0.586C0.461,-0.604 0.43,-0.613 0.392,-0.613C0.333,-0.613 0.285,-0.59 0.25,-0.545C0.214,-0.5 0.197,-0.435 0.197,-0.352C0.197,-0.296 0.205,-0.25 0.22,-0.213C0.236,-0.176 0.258,-0.149 0.287,-0.13C0.315,-0.112 0.349,-0.103 0.387,-0.103C0.429,-0.103 0.464,-0.113 0.493,-0.134C0.522,-0.155 0.543,-0.185 0.558,-0.225C0.564,-0.244 0.572,-0.259 0.581,-0.271C0.59,-0.283 0.605,-0.289 0.625,-0.289C0.642,-0.289 0.657,-0.283 0.669,-0.271C0.682,-0.259 0.688,-0.244 0.688,-0.226Z" style="fill-rule:nonzero;"/>
        </g>
        <g transform="matrix(300,0,0,300,1625.89,1241.09)">
            <path d="M0.568,-0.259C0.568,-0.219 0.562,-0.182 0.549,-0.149C0.537,-0.115 0.519,-0.087 0.496,-0.063C0.472,-0.038 0.444,-0.02 0.412,-0.007C0.379,0.006 0.342,0.012 0.302,0.012C0.261,0.012 0.225,0.006 0.193,-0.007C0.161,-0.02 0.133,-0.039 0.109,-0.063C0.086,-0.087 0.068,-0.116 0.055,-0.149C0.043,-0.182 0.037,-0.219 0.037,-0.259C0.037,-0.299 0.043,-0.336 0.056,-0.37C0.068,-0.403 0.086,-0.432 0.109,-0.456C0.132,-0.479 0.16,-0.498 0.193,-0.51C0.226,-0.523 0.262,-0.53 0.302,-0.53C0.342,-0.53 0.379,-0.523 0.412,-0.51C0.444,-0.497 0.473,-0.479 0.496,-0.455C0.52,-0.431 0.537,-0.402 0.55,-0.369C0.562,-0.335 0.568,-0.299 0.568,-0.259ZM0.434,-0.259C0.434,-0.313 0.422,-0.355 0.398,-0.386C0.374,-0.416 0.342,-0.431 0.302,-0.431C0.276,-0.431 0.253,-0.424 0.233,-0.411C0.213,-0.397 0.198,-0.377 0.187,-0.351C0.176,-0.325 0.171,-0.294 0.171,-0.259C0.171,-0.224 0.176,-0.194 0.187,-0.167C0.197,-0.141 0.212,-0.122 0.232,-0.108C0.252,-0.094 0.275,-0.087 0.302,-0.087C0.342,-0.087 0.374,-0.102 0.398,-0.133C0.422,-0.163 0.434,-0.205 0.434,-0.259Z" style="fill-rule:nonzero;"/>
        </g>
        <g transform="matrix(300,0,0,300,1807.1,1241.09)">
            <path d="M0.434,0.121L0.434,-0.067C0.408,-0.041 0.382,-0.022 0.354,-0.008C0.326,0.005 0.295,0.012 0.261,0.012C0.22,0.012 0.182,0.001 0.148,-0.021C0.114,-0.042 0.087,-0.074 0.068,-0.115C0.049,-0.155 0.039,-0.203 0.039,-0.259C0.039,-0.315 0.049,-0.364 0.068,-0.405C0.088,-0.445 0.115,-0.476 0.15,-0.497C0.184,-0.518 0.223,-0.529 0.265,-0.529C0.301,-0.529 0.333,-0.521 0.361,-0.507C0.39,-0.492 0.414,-0.469 0.434,-0.439L0.434,-0.455C0.434,-0.479 0.44,-0.498 0.452,-0.511C0.463,-0.523 0.479,-0.53 0.497,-0.53C0.516,-0.53 0.531,-0.524 0.542,-0.511C0.554,-0.498 0.56,-0.48 0.56,-0.455L0.56,0.121C0.56,0.18 0.539,0.21 0.497,0.21C0.471,0.21 0.454,0.202 0.446,0.186C0.438,0.17 0.434,0.148 0.434,0.121ZM0.173,-0.26C0.173,-0.224 0.179,-0.193 0.19,-0.167C0.202,-0.141 0.217,-0.122 0.236,-0.11C0.255,-0.097 0.275,-0.091 0.297,-0.091C0.321,-0.091 0.342,-0.097 0.362,-0.11C0.382,-0.122 0.398,-0.141 0.41,-0.167C0.422,-0.193 0.428,-0.224 0.428,-0.262C0.428,-0.289 0.425,-0.313 0.418,-0.334C0.411,-0.356 0.401,-0.374 0.389,-0.388C0.377,-0.402 0.363,-0.413 0.348,-0.42C0.332,-0.427 0.315,-0.43 0.298,-0.43C0.262,-0.43 0.232,-0.415 0.208,-0.386C0.185,-0.356 0.173,-0.314 0.173,-0.26Z" style="fill-rule:nonzero;"/>
        </g>
    </g>
    <g id="XMLID_283_" transform="matrix(0.828613,0,0,0.828613,1050.75,1046.63)">
        <path d="M370.623,444.804C381.321,475.384 386.804,483.054 388.257,484.697C399.376,497.275 419.249,498.883 432.562,488.28C445.477,476.079 446.735,462.841 436.337,448.568C431.902,443.553 412,431.17 370.578,411.665L370.623,444.804Z" style="fill-rule:nonzero;"/>
    </g>
    <g id="XMLID_280_" transform="matrix(0.828613,0,0,0.828613,1050.75,1046.63)">
        <path d="M370.407,290.761L370.518,370.153C418.207,361.363 472.014,354.892 504.519,351.379C494.072,342.568 476.706,330.252 448.03,314.458C425.19,301.88 399.146,293.507 370.401,289.482C370.405,289.909 370.407,290.335 370.407,290.761Z" style="fill-rule:nonzero;"/>
    </g>
    <g id="XMLID_291_" transform="matrix(0.828613,0,0,0.828613,1050.75,1046.63)">
        <path d="M337.938,290.807L337.938,290.806C337.84,216.765 277.229,151.713 203.177,156.529C84.255,164.263 70.992,253.584 69.951,341.807C69.923,374.502 63.662,406.439 51.342,436.73C42.125,459.395 28.238,479.708 10.067,497.102C5.001,501.95 7.562,512 16.123,512L69.828,512C127.086,448.326 114.247,358.978 114.107,358.059L146.189,353.051C146.811,357.014 159.102,440.393 110.936,512L331.064,512C335.565,510.871 338.241,507.299 338.235,503.327L337.938,290.807ZM248.77,289.095C237.742,289.095 228.802,280.172 228.802,269.165C228.802,258.158 237.743,249.236 248.77,249.236C259.798,249.236 268.738,258.158 268.738,269.165C268.738,280.172 259.798,289.095 248.77,289.095Z" style="fill-rule:nonzero;"/>
    </g>
    <g transform="matrix(0.646749,-0.373401,0.373401,0.646749,161.822,1065.82)">
        <path d="M1051.57,765.835L1132.16,765.835L1092.73,550.549L1051.57,765.835Z" style="stroke:black;stroke-width:1.34px;"/>
    </g>
    <g transform="matrix(0.746802,0,0,0.746802,403.814,563.066)">
        <path d="M1051.57,765.835L1132.16,765.835L1092.73,550.549L1051.57,765.835Z" style="stroke:black;stroke-width:1.34px;"/>
    </g>
    <g transform="matrix(0.646749,0.373401,-0.373401,0.646749,865.244,249.582)">
        <path d="M1051.57,765.835L1132.16,765.835L1092.73,550.549L1051.57,765.835Z" style="stroke:black;stroke-width:1.34px;"/>
    </g>
</svg>
